# xmcd
#
# Track frame offsets: 
#        150
#        12688
#        27488
#        34994
#        46766
#        53657
#        61755
#        68644
#        82953
#        93857
#        105997
#        124880
#        139129
#        149534
#        160826
#        171542
#        185873
#        197311
#        209038
#        217925
#
# Disc length: 3120 seconds
#
# Revision: 1
# Processed by: cddbd v1.5.2PL0 Copyright (c) Steve Scherf et al.
# Submitted via: ExactAudioCopyFreeDBPlugin 1.0
#
DISCID=210c2e14
DTITLE=Roco - こどもじゃず いっぱい
DYEAR=2012
DGENRE=Jazz
TTITLE0=おもちゃのチャチャチャ
TTITLE1=さんぽ
TTITLE2=ねこふんじゃった
TTITLE3=かえるの合唱
TTITLE4=チェッチェッコリ
TTITLE5=大きな栗の木の下で
TTITLE6=アルプス一万尺
TTITLE7=黒猫のタンゴ
TTITLE8=アイスクリームの唄
TTITLE9=ドレミの歌
TTITLE10=幸せなら手をたたこう
TTITLE11=いとまきのうた
TTITLE12=アイ・アイ
TTITLE13=おにのパンツ
TTITLE14=おばけなんてないさ
TTITLE15=手のひらを太陽に
TTITLE16=線路はつづくよどこまでも
TTITLE17=グリーングリーン
TTITLE18=ピクニック
TTITLE19=おめでとうた [いっぱい Ver．]
EXTD=YEAR: 2012
EXTT0=
EXTT1=
EXTT2=
EXTT3=
EXTT4=
EXTT5=
EXTT6=
EXTT7=
EXTT8=
EXTT9=
EXTT10=
EXTT11=
EXTT12=
EXTT13=
EXTT14=
EXTT15=
EXTT16=
EXTT17=
EXTT18=
EXTT19=
PLAYORDER=
